<svg xmlns="http://www.w3.org/2000/svg" viewBox="0 0 500 500">
  <title>codepen</title>
  <g id="codepen">
    <g>
      <path d="M67.15,186.53l183-119.35a2,2,0,0,1,2.2,0L432.52,186.66a2,2,0,0,1,.89,1.67l-.16,124.17a2,2,0,0,1-.9,1.67L252.63,432.82a2,2,0,0,1-2.19,0L67.27,314.27a2,2,0,0,1-.91-1.68L66.24,188.2A2,2,0,0,1,67.15,186.53Z" style="fill: none;stroke: #000;stroke-miterlimit: 10;stroke-width: 25px"/>
      <path d="M66.76,310.44,251.64,188.18a2,2,0,0,1,2.23,0L431.76,309.44" style="fill: none;stroke: #000;stroke-miterlimit: 10;stroke-width: 25px"/>
      <line x1="251.76" y1="68.44" x2="251.76" y2="192.18" style="fill: none;stroke: #000;stroke-miterlimit: 10;stroke-width: 25px"/>
      <path d="M66.76,184.44l184,127.07a2,2,0,0,0,2.25,0L433.76,190.44" style="fill: none;stroke: #000;stroke-miterlimit: 10;stroke-width: 25px"/>
      <line x1="251.76" y1="308.44" x2="251.76" y2="432.18" style="fill: none;stroke: #000;stroke-miterlimit: 10;stroke-width: 25px"/>
    </g>
  </g>
</svg>
