<svg xmlns="http://www.w3.org/2000/svg" viewBox="0 0 660 75.39">
  <title>dwardfellows (homemade)</title>
  <g id="edward">
    <path d="M176,244c0,4,28-15,22-22s-25,16-25,22,6,9.58,9,10c7,1,32-11,35-15s12-21,20-19c4,1,7,7,2,19-3.44,8.26-13,15.76-19,15-7.68-1-3.33-13.94-3.33-13.94" transform="translate(-170.5 -187.11)" style="fill: none;stroke: #000;stroke-linecap: round;stroke-linejoin: round;stroke-width: 5px"/>
    <path d="M259,193c-4.37,7.16-18.5,42.92-18.92,46.68-1,9,5.92,13.32,10.92,13.32,4,0,13-6,14-9s1.64-12.21,8-18" transform="translate(-170.5 -187.11)" style="fill: none;stroke: #000;stroke-linecap: round;stroke-linejoin: round;stroke-width: 5px"/>
    <path d="M265,245.45c-1.53,5,1.73,9.83,5,10.55,6.84,1.51,23-15,28-25-5,11-4,25,7,25,15,0,26-19,26-31" transform="translate(-170.5 -187.11)" style="fill: none;stroke: #000;stroke-linecap: round;stroke-linejoin: round;stroke-width: 5px"/>
    <path d="M356,244c-2,5-11.3,13.14-17,11-8-3,1-19,5-23s9.69-13.23,14-10c4,3-3,20,0,25s5,9,13,9,24-28,25-33c0,5,0,16,14,11-5,4-13.28,15.43-4,21,5.68,3.41,14.89-5.48,21-14,4.65-6.48,5-11,8-14,8.06-8.06,19-9,19,2,0,14-12,26.68-21,26-10.82-.82-5.12-14.33-5.12-14.33" transform="translate(-170.5 -187.11)" style="fill: none;stroke: #000;stroke-linecap: round;stroke-linejoin: round;stroke-width: 5px"/>
    <path d="M471,191c-7,14-16,42-17,50-.74,6,0,11,6,12,3,.49,14-2,20-12" transform="translate(-170.5 -187.11)" style="fill: none;stroke: #000;stroke-linecap: round;stroke-linejoin: round;stroke-width: 5px"/>
  </g>
  <g id="fellows">
    <path d="M512,203c10,2,34-8,38-13s-29,39-28,70" transform="translate(-170.5 -187.11)" style="fill: none;stroke: #000;stroke-linecap: round;stroke-linejoin: round;stroke-width: 5px"/>
    <path d="M495,229c0,7,45-8,46-2" transform="translate(-170.5 -187.11)" style="fill: none;stroke: #000;stroke-linecap: round;stroke-linejoin: round;stroke-width: 5px"/>
    <path d="M556,243c5,0,24.71-14.29,18-21-6-6-21.54,14.18-23,20-2,8,3,13,10,12s33-13,35-15" transform="translate(-170.5 -187.11)" style="fill: none;stroke: #000;stroke-linecap: round;stroke-linejoin: round;stroke-width: 5px"/>
    <path d="M597.76,245.14C599.78,244.06,629,207,623,197s-30,40-27,49,10,9,14,8,22-11,23-13" transform="translate(-170.5 -187.11)" style="fill: none;stroke: #000;stroke-linecap: round;stroke-linejoin: round;stroke-width: 5px"/>
    <path d="M637,244c2-1.15,30-38,24-47s-28,36-27,48,8,11,11,10,23-11,25-13" transform="translate(-170.5 -187.11)" style="fill: none;stroke: #000;stroke-linecap: round;stroke-linejoin: round;stroke-width: 5px"/>
    <path d="M679,232c16,13,30,4,36-5-6,10-12,27-2,29s27-22,28-24-12.08,20.42,7,24c16,3,28-25,25-31" transform="translate(-170.5 -187.11)" style="fill: none;stroke: #000;stroke-linecap: round;stroke-linejoin: round;stroke-width: 5px"/>
    <path d="M671,256c6.32,3.61,15-8,16-10s8-17,3-21c-3.9-3.12-13,8-15,11S664,252,671,256Z" transform="translate(-170.5 -187.11)" style="fill: none;stroke: #000;stroke-linecap: round;stroke-linejoin: round;stroke-width: 5px"/>
    <path d="M774,238c2,4,9.24,12.3,16,15,5,2,23-1,38-13" transform="translate(-170.5 -187.11)" style="fill: none;stroke: #000;stroke-linecap: round;stroke-linejoin: round;stroke-width: 5px"/>
    <path d="M775,256c3-5,18-29,28-30s4,19,0,25" transform="translate(-170.5 -187.11)" style="fill: none;stroke: #000;stroke-linecap: round;stroke-linejoin: round;stroke-width: 5px"/>
  </g>
</svg>
