<svg xmlns="http://www.w3.org/2000/svg" viewBox="0 0 500 500">
  <title>jq</title>
  <g id="jQuery">
    <g id="Layer_19" data-name="Layer 19">
      <path id="small" d="M270.86,73.37c-6.52,23.14,6.66,49.39,29.42,62.72,16,9.39,37,12.8,58.44,2.31-16.51,24.63-49,23.17-69,11.55C266,136.15,248.37,103.87,270.86,73.37Z" style="fill: none;stroke: #727272;stroke-miterlimit: 10;stroke-width: 5px"/>
      <path id="middle" d="M219.28,86.72c-11.47,40.67,6.71,79.76,44.05,102.7,31,19,71.17,22.1,106.91-11.57-27.7,53.75-84.75,54.56-122.42,33.47C205.85,187.81,181.57,134,219.28,86.72Z" style="fill: none;stroke: #727272;stroke-miterlimit: 10;stroke-width: 5px"/>
      <path id="large" d="M157.39,108.38c-16.84,74.82,21.69,119.36,64.15,144.21,31.41,18.38,94.79,32.93,141.36-13-40.33,78.59-126.46,64.57-164.47,42.51C151.58,254.86,96.38,176.05,157.39,108.38Z" style="fill: none;stroke: #727272;stroke-miterlimit: 10;stroke-width: 5px"/>
    </g>
    <path id="j" d="M106.87,360.4s-7.69,43.47-12.39,46.86c-2.24,1.62-9,.76-9,.76l-3.19,13.2s14.07,2.76,20.31-.58a18.06,18.06,0,0,0,9.14-10.74c.73-2.47,11.24-49.48,11.24-49.48Z" style="fill: none;stroke: #727272;stroke-miterlimit: 10;stroke-width: 5px"/>
    <polygon id="_." data-name="." points="110.78 342.81 107.9 355.31 124.07 355.33 127 342.81 110.78 342.81" style="fill: none;stroke: #727272;stroke-miterlimit: 10;stroke-width: 5px"/>
    <path id="q" d="M188.55,384.6c1.75,0,6.75.1,7.8.1-.21,1.18-3.13,13.12-3.45,14.43H148c-26.61-3.82-19.72-34.74-16.13-43.84S140.5,327,170.46,327c21.54,0,26.52,17.12,26.37,28.26C196.67,366.15,190.48,379.63,188.55,384.6Z" style="fill: none;stroke: #727272;stroke-miterlimit: 10;stroke-width: 5px"/>
    <path id="qq" d="M172.76,384.7c-3.28,0-15.86-.06-18.61-.06-10.09-2.76-8.43-10.43-8.05-14.09s4.92-19.71,7.35-22.83c4.19-5.39,10.08-4.88,14.41-4.88,10.69,0,12.81,7.9,12.57,12.47C180.24,358.82,173.77,381.81,172.76,384.7Z" style="fill: none;stroke: #727272;stroke-miterlimit: 10;stroke-width: 5px"/>
    <path id="u" d="M209.19,342.81h15s-8.81,39.93-5.19,41.86c4.11,0,12-.06,15.23-.06,1.84-1.84,9.33-41.8,9.33-41.8l14.81,0-11.78,56.3-31.82.07s-11.93-.28-12.57-12.77C201.52,373,209.19,342.81,209.19,342.81Z" style="fill: none;stroke: #727272;stroke-miterlimit: 10;stroke-width: 5px"/>
    <path id="e" d="M307.13,384.65c-.41,3.27-1.8,11-2.57,14.45l-33.22,0c-4.52-1.26-13.45-3.57-14.2-14.63s6-28.8,10.92-34.39c5.08-5.76,13.54-8.84,23.89-8.84,17.09,0,20.56,10.57,20.86,13.95s.38,8.76-2.64,21.11H274.48c-1.48,1.68-1.75,7.36,2.48,8.34Z" style="fill: none;stroke: #727272;stroke-miterlimit: 10;stroke-width: 5px"/>
    <path id="ee" d="M276.64,364.2H297c0-3.13-1.93-8.88-7.67-8.88S278.95,356.81,276.64,364.2Z" style="fill: none;stroke: #727272;stroke-miterlimit: 10;stroke-width: 5px"/>
    <path id="r" d="M313.19,399.19l12.31-56.42s30.42-.06,35.47,0a4.63,4.63,0,0,1,.86.09c3.31.62,9.53,1,9.53,12.45l-33.62,0-9.22,43.86Z" style="fill: none;stroke: #727272;stroke-miterlimit: 10;stroke-width: 5px"/>
    <path id="y" d="M356,360.46l16.82,0,2.6,9,23.92-34.93H417.8S383.23,376.4,376,399H359.22s3.08-5.74,3.08-11.28S356,360.46,356,360.46Z" style="fill: none;stroke: #727272;stroke-miterlimit: 10;stroke-width: 5px"/>
  </g>
</svg>
