<svg xmlns="http://www.w3.org/2000/svg" viewBox="0 0 500 500"><title>wordpress</title>
  <g id="wordpress">
    <circle id="circle" cx="250" cy="245.57" r="175.7" style="fill: none;stroke: #727272;stroke-miterlimit: 10;stroke-width: 5px"/>
    <path d="M110.31,157.91l92.25,246.49,55.16-153.94,58,152.14s68.55-186.47,71.48-200.88c3.62-17.78,9.07-79.83-32.58-71.34-49.23,10-10.12,56.46-2.25,74.71,7.72,17.88,5.06,33.14,3.93,37.64s-26.17,82.36-26.17,82.36L276,169.15s15-.62,19.77-1.1c3.37-3.93,2.26-11.52-1.11-12.09-41.49,2.72-52.41,2.45-85.18.39-6.74,3.37-4.17,10.55-.55,11.2,6.18,1.12,19.31,1.59,19.31,1.59l21.91,61.23-32.58,93.81L162.55,168s13.68.37,20-.73c3.37-1.39,4.17-9.39-.88-11.07C164.64,157.91,110.31,157.91,110.31,157.91Z" style="fill: none;stroke: #727272;stroke-miterlimit: 10;stroke-width: 5px"/>  </g>
</svg>
