<svg xmlns="http://www.w3.org/2000/svg" viewBox="0 0 500 500">
  <title>css</title>
  <g id="css">
    <g id="bg">
      <polygon id="outer" points="128.23 141.35 373.33 141.35 350.52 390.82 250.52 421.46 151.11 391.1 128.23 141.35" style="fill: none;stroke: #727272;stroke-miterlimit: 10;stroke-width: 5px"/>
    </g>
    <polygon id="_3" data-name="3" points="173.7 192.44 177.09 224.24 292.45 224.27 289.69 254.63 213.72 254.68 216.89 285.45 287.02 285.45 283.61 322.71 249.42 331.9 215.75 322.79 213.94 299.55 183.54 299.55 187.3 346.17 249.34 363.52 312.22 346.09 325.93 192.48 173.7 192.44" style="fill: none;stroke: #727272;stroke-miterlimit: 10;stroke-width: 5px"/>
    <polygon id="C" points="180.15 73.51 180.15 121.44 217.31 121.41 217.3 104.72 195.87 104.72 195.88 89.68 217.31 89.67 217.29 73.53 180.15 73.51" style="fill: none;stroke: #727272;stroke-miterlimit: 10;stroke-width: 5px"/>
    <polygon id="S" points="225.37 73.52 225.37 89.64 242.15 104.72 225.37 104.7 225.37 121.42 268.1 121.4 268.1 104.72 249.41 89.66 268.1 89.66 268.13 73.56 225.37 73.52" style="fill: none;stroke: #727272;stroke-miterlimit: 10;stroke-width: 5px"/>
    <polygon id="S-2" data-name="S" points="276.37 73.52 276.37 89.64 293.15 104.72 276.37 104.7 276.37 121.42 319.1 121.4 319.1 104.72 300.4 89.66 319.1 89.66 319.13 73.56 276.37 73.52" style="fill: none;stroke: #727272;stroke-miterlimit: 10;stroke-width: 5px"/>
  </g>
</svg>
