<svg xmlns="http://www.w3.org/2000/svg" viewBox="0 0 500 500">
  <title>acrobatpro</title>
  <g id="acobat">
    <path id="outter" d="M250.08,227.28c2.13,4.44,19.73,29.87,27.15,35.51,27.67-5.67,59.27-3.46,58.16,13.66s-34.75,12.23-59.54-9.93c-12.65,1.38-40.45,8.27-47.25,12.17-4.09,10-37.48,63.72-56.82,44.06-15.15-15.4,27.33-35.57,43.83-43,6.89-9.27,25.5-55,25.5-60.55-13.82-24.4-12.9-55.48.7-56.92C268.35,159.5,256.82,211.06,250.08,227.28Z" style="fill: none;stroke: #727272;stroke-miterlimit: 10;stroke-width: 5px"/>
    <path d="M212.81,284.6c-.94,5.61-30.76,48.34-39.65,34.88C164,305.62,212.81,284.6,212.81,284.6Z" style="fill: none;stroke: #727272;stroke-miterlimit: 10;stroke-width: 5px"/>
    <path d="M248.73,231.95c-2.8,10.41-14.29,35-18.15,42,12.87-4.89,36-9.53,41.58-10.43C262,253.83,251.46,236.62,248.73,231.95Z" style="fill: none;stroke: #727272;stroke-miterlimit: 10;stroke-width: 5px"/>
    <path d="M242.69,214c1.65-3.07,15.57-46.79,1.82-48.1C227.12,164.24,239,207.79,242.69,214Z" style="fill: none;stroke: #727272;stroke-miterlimit: 10;stroke-width: 5px"/>
    <path d="M280.36,265.41c5,5.86,39.26,27.44,44.55,9.64C329.51,259.52,294.86,263.36,280.36,265.41Z" style="fill: none;stroke: #727272;stroke-miterlimit: 10;stroke-width: 5px"/>
  </g>
</svg>
