<svg xmlns="http://www.w3.org/2000/svg" viewBox="0 0 500 500">
  <title>pipe</title>
  <g id="pipe">
    <path d="M40.89,211.61c-13,69-3,127,17,151,23,27.59,60.84,30,80,30,114,0,165.89-118.06,222.35-145,37.65-18,61.47-21,89.65-20,0,0,16.28,8,15-10-1-14-17-15-21-9-9-1-68.6-8-126,17-65.5,28.58-123.71,94.31-151.77,86.68-17.23-4.68,5.77-37.68-11.23-104.68-4.2-16.56-121-12-112,0,7.74,10.31,84.93,9.39,107.84,3.14-2.51-42.38-107.06-14.42-100.32-41.34,5.84-23.37,86.73,1.35,81.34-22.92-5.58-25.13-69.55-2.42-64.71-23.37,4-17.53,33.59-15.42,40.45-15.73" style="fill: none;stroke: #000;stroke-linecap: round;stroke-miterlimit: 10"/>
  </g>
</svg>
