<svg xmlns="http://www.w3.org/2000/svg" viewBox="0 0 500 500">
  <title>xd</title>
  <g id="Layer_9" data-name="Layer 9">
    <g>
      <path d="M398.67,91v70l-.39,0q-5.58-.55-11.31-.55a114.63,114.63,0,0,0-26.85,226.07,10.08,10.08,0,0,0,2.35.27h49a10,10,0,0,0,2.34-.27,114,114,0,0,0,31.28-12.64,9.73,9.73,0,0,0,4.79-8.38V91ZM389,344.78H373a9.55,9.55,0,0,1-4.78-1.24,81.26,81.26,0,0,1-5-137.72,9.47,9.47,0,0,1,5.32-1.58H389a9.69,9.69,0,0,1,9.69,9.69V335.09A9.69,9.69,0,0,1,389,344.78Z" style="fill: none;stroke: #f7d7ee;stroke-miterlimit: 10;stroke-width: 10px"/>
      <path d="M265.49,365.71V383a3.26,3.26,0,0,1-3.26,3.26H221.07a3.26,3.26,0,0,1-2.83-1.63l-57.72-100a3.26,3.26,0,0,0-5.65,0l-57.72,100a3.26,3.26,0,0,1-2.83,1.63H51.15A3.26,3.26,0,0,1,47.89,383V369.18a3.26,3.26,0,0,1,.44-1.63l79.09-136.93a3.26,3.26,0,0,0,0-3.27l-72-124.74a3.26,3.26,0,0,1-.44-1.63V91.32a3.26,3.26,0,0,1,3.26-3.26h45.6a3.26,3.26,0,0,1,2.83,1.63l48.24,83.55a3.26,3.26,0,0,0,5.65,0l48.24-83.55a3.26,3.26,0,0,1,2.83-1.63H257.1a3.26,3.26,0,0,1,3.26,3.26v9.79a3.26,3.26,0,0,1-.44,1.63L188,227.35a3.26,3.26,0,0,0,0,3.26L265,364.08A3.26,3.26,0,0,1,265.49,365.71Z" style="fill: none;stroke: #f7d7ee;stroke-miterlimit: 10;stroke-width: 10px"/>
    </g>
  </g>
</svg>
