<svg xmlns="http://www.w3.org/2000/svg" xmlns:xlink="http://www.w3.org/1999/xlink" viewBox="-6633 4454 1920 1920">
  <defs>
    <style>
      .cls-1 {
        clip-path: url(#clip-Artboard_16);
      }

      .cls-2, .cls-7 {
        fill: none;
      }

      .cls-2, .cls-3 {
        stroke: #95989a;
        stroke-width: 10px;
      }

      .cls-3, .cls-8 {
        fill: #fff;
      }

      .cls-4, .cls-5 {
        fill: #95989a;
        font-family: Impact;
      }

      .cls-4 {
        font-size: 117px;
      }

      .cls-5 {
        font-size: 216px;
      }

      .cls-6 {
        stroke: none;
      }
    </style>
    <clipPath id="clip-Artboard_16">
      <rect x="-6633" y="4454" width="1920" height="1920"/>
    </clipPath>
  </defs>
  <g id="Artboard_16" data-name="Artboard – 16" class="cls-1">
    <rect class="cls-8" x="-6633" y="4454" width="1920" height="1920"/>
    <path id="rocket_main" data-name="rocket main" class="cls-2" d="M-6050.854,7343.448c128.717,212.429,47.449,392.536,31.724,419.628,18.485,18.214,14.823,49.8-1.158,64.054,0,4.205.033,8.563,0,12.347,6.54,3.8,15.937,44.793,11.132,56.969-24.583,7.658-79.5,4.713-84.417-3.446s5.395-47.1,10.531-53.523v-12.522c-12.776-11.478-22.495-41.226-.722-63.878C-6098.724,7729.914-6185.624,7561.527-6050.854,7343.448Z" transform="translate(-75 -2431)"/>
    <path id="Path_12" data-name="Path 12" class="cls-2" d="M-6151.985,7887.768c9.427-47.462,42.957-116.35,68.439-124.813-15.227-26.8-29.13-75.745-31.346-88.314C-6123.417,7673.281-6182.013,7753.86-6151.985,7887.768Z" transform="translate(-75 -2431)"/>
    <path id="Path_13" data-name="Path 13" class="cls-2" d="M-6077.255,7888.586c-10.575-47.462-45.2-115.926-73.783-124.39,16.233-28.02,28.842-76.3,31.328-88.869C-6110.148,7673.969-6043.571,7754.679-6077.255,7888.586Z" transform="translate(56.821 -2432)"/>
    <g id="Ellipse_10" data-name="Ellipse 10" class="cls-3" transform="translate(-6171 5053)">
      <circle class="cls-6" cx="47" cy="47" r="47"/>
      <circle class="cls-7" cx="47" cy="47" r="42"/>
    </g>
    <path id="Path_14" data-name="Path 14" class="cls-2" d="M-6050.858,7367.674v-37.586" transform="translate(-75 -2453.635)"/>
    <path id="Path_32" data-name="Path 32" class="cls-2" d="M-6633,5703.336c14.212-8.414,26.628,4.731,31.065,15.15,48.6-82.029,122.152-25.185,129.637-5.4,4.034-21.1,9.879-29.412,35.072-20.851-40.684-139.027,100.305-210.2,196.295-90.859-1.78-53.67,52.1-71.989,63.1-73.79-22.048-32.283,10.065-61.421,10.065-61.421s73.122-.246,87.928,0c5.582,10.886-1.942,22.946-8.672,29.628,10.021,7.353,18.754,19.511,8.672,36.066,24.928.958,38.029,18.6,30.115,37.864,78.171-46.029,114.775,3.349,128.4,16.248,36.994-44.43,179.394-69.341,186.542,81.841,59.494-88.19,169.187-29.446,166,20.155,48.888-35.038,85.423-1.671,94.591,19.118,51.25-93.2,142.552-58.866,161.11-30.144,52.605-50.037,99.335-8.3,108.873,5.546,46.8-67.468,151.243-25.928,159.077,14.514,9.146-11.664,23.7-23.612,43.245-14.514,40.2-48.412,113.748-18.743,130.73,10.759,39.655-7.52,57.768,22.837,63.25,39.528,22.638-46.547,70.833-42.148,93.308-13.742"/>
    <text id="OUR_NEW_WEBSITE_WILL" data-name="OUR NEW WEBSITE WILL" class="cls-4" transform="translate(-5929 4808)"><tspan x="0" y="0">OUR NEW WEBSITE WILL</tspan></text>
    <text id="SOON.._T_minus.._7_days" data-name="SOON.. T minus.. 7 days" class="cls-4" transform="translate(-5929 5194)"><tspan x="0" y="0">SOON.. T minus.. 7 days</tspan></text>
    <text id="LAUNCH" class="cls-5" transform="translate(-5929 5035)"><tspan x="0" y="0">LAUNCH</tspan></text>
  </g>
</svg>
