<svg xmlns="http://www.w3.org/2000/svg" viewBox="0 0 500 500">
  <title>coffee</title>
  <g id="coffee">
    <g>
      <path d="M114.71,101H328.94a8.38,8.38,0,0,1,8.38,8.38V384a28,28,0,0,1-28,28H134.37a28,28,0,0,1-28-28V109.39A8.38,8.38,0,0,1,114.71,101Z" style="fill: none;stroke: #000;stroke-miterlimit: 10"/>
      <path d="M336.83,165s20.25-.33,32.2,0c21.58,0,43.42,31.47,46.14,45.81,0,6.5.08,51.58.08,58.67-1,14.19-22.32,44.24-45.89,44.24-7.3-.33-31.87-.33-31.87-.33" style="fill: none;stroke: #000;stroke-miterlimit: 10"/>
      <line x1="106.92" y1="141.54" x2="335.07" y2="141.54" style="fill: none;stroke: #ed1c24;stroke-miterlimit: 10"/>
    </g>
    <g>
      <line x1="155.67" y1="34.07" x2="155.67" y2="81.58" style="fill: none;stroke: #ed1c24;stroke-miterlimit: 10"/>
      <line x1="214.79" y1="11.15" x2="214.79" y2="82.63" style="fill: none;stroke: #ed1c24;stroke-miterlimit: 10"/>
      <line x1="270.4" y1="19.08" x2="270.4" y2="82.28" style="fill: none;stroke: #ed1c24;stroke-miterlimit: 10"/>
    </g>
  </g>
</svg>
