<svg xmlns="http://www.w3.org/2000/svg" viewBox="0 0 500 500">
  <g fill="none" stroke="#000" stroke-miterlimit="10" stroke-width="10">
    <path d="M83 173.75L247.57 66.46a25.34 25.34 0 0 1 27.85.11l161.8 107.3A25.34 25.34 0 0 1 448.55 195l-.14 102.47A25.34 25.34 0 0 1 437 318.61L275.64 425.18a25.34 25.34 0 0 1-27.73.13L83.22 318.7a25.34 25.34 0 0 1-11.57-21.25L71.54 195A25.34 25.34 0 0 1 83 173.75z"/>
    <path d="M72.07 307.89L248.87 191a25.34 25.34 0 0 1 28.25.2l169.75 115.67M262.04 59.4v127.06"/>
    <path d="M72.07 178.51L248 300a25.34 25.34 0 0 0 28.5.2l172.42-115.53M262.04 305.84v127.07"/>
  </g>
</svg>
