<svg xmlns="http://www.w3.org/2000/svg" viewBox="0 0 500 500">
  <title>
    xd
  </title>
  <g data-name="Layer 9" fill="none" stroke="#f7d7ee" stroke-miterlimit="10" stroke-width="10">
    <path d="M396.71 98.36V165h-.37q-5.31-.52-10.75-.52a109 109 0 0 0-25.54 215 9.58 9.58 0 0 0 2.23.26h46.6a9.55 9.55 0 0 0 2.22-.26 108.42 108.42 0 0 0 29.75-12 9.25 9.25 0 0 0 4.56-8V98.36zm-9.21 241.38h-15.19a9.08 9.08 0 0 1-4.54-1.18 77.28 77.28 0 0 1-4.75-131 9 9 0 0 1 5.06-1.5h19.42a9.21 9.21 0 0 1 9.21 9.21v115.26a9.21 9.21 0 0 1-9.21 9.21zM270 359.65v16.46a3.1 3.1 0 0 1-3.1 3.1h-39.09a3.1 3.1 0 0 1-2.69-1.55l-54.89-95.06a3.1 3.1 0 0 0-5.38 0L110 377.66a3.1 3.1 0 0 1-2.69 1.55H66.2a3.1 3.1 0 0 1-3.1-3.1V363a3.1 3.1 0 0 1 .42-1.55l75.22-130.23a3.1 3.1 0 0 0 0-3.11L70.23 109.42a3.1 3.1 0 0 1-.42-1.55v-9.18a3.1 3.1 0 0 1 3.1-3.1h43.37a3.1 3.1 0 0 1 2.72 1.54l45.88 79.46a3.1 3.1 0 0 0 5.38 0l45.88-79.46a3.1 3.1 0 0 1 2.69-1.55h43.28a3.1 3.1 0 0 1 3.1 3.1V108a3.1 3.1 0 0 1-.42 1.55l-68.42 118.5a3.1 3.1 0 0 0 0 3.1l73.26 126.95a3.1 3.1 0 0 1 .37 1.55z"/>
  </g>
</svg>
