<svg id="be" xmlns="http://www.w3.org/2000/svg" viewBox="0 0 500 500">
  <title>be</title>
  <g data-name="Layer 8" stroke-miterlimit="10" stroke-width="10">
    <path class="be" d="M200.42 237.54a53.4 53.4 0 0 0 48.07-53.13v-4.92A72.51 72.51 0 0 0 176 107H22.58v130.48h-.08v153.46h156a82.19 82.19 0 0 0 82.19-82.18v-8.39a62.88 62.88 0 0 0-60.27-62.83zm-114.79-81.7h70.89a31.82 31.82 0 0 1 31.82 31.82v1.77A33.35 33.35 0 0 1 155 222.78H85.63zm113.85 149.49a38.14 38.14 0 0 1-38.14 38.14H85.63v-78.94h77.48a36.38 36.38 0 0 1 36.37 36.39zM319.16 119.96h114.41v32.24H319.16zM478.55 296.31a114.92 114.92 0 0 0 .82-13.82c0-60.35-46.48-109.27-103.82-109.27s-103.8 48.92-103.8 109.26 46.48 109.27 103.81 109.27c44.24 0 82-29.13 97-70.17h-48.8a49.93 49.93 0 0 1-94.62-22.23c0-1 0-2 .1-3.06h149.31zm-150-36.5a46.69 46.69 0 0 1 93.22 0z"/>
  </g>
</svg>