<svg xmlns="http://www.w3.org/2000/svg" viewBox="0 0 500 500">
  <title>bootsrap</title>
  <g id="bootstrap">
    <rect x="76.7" y="71.99" width="350.01" height="350.01" rx="59.16" ry="59.16" style="fill: none;stroke: #727272;stroke-miterlimit: 10;stroke-width: 5px"/>
    <path id="B" d="M170.34,151.59v202H277.45c87.91-11.85,68.07-101.14,22.93-108.92,33.27-9,51-85.57-23.12-93.16C240.9,151.48,170.34,151.59,170.34,151.59Z" style="fill: none;stroke: #727272;stroke-miterlimit: 10;stroke-width: 5px"/>
    <path d="M206,179.43v56.41h65.48c20.32,0,38.8-46.36.53-56.51C264.26,179.33,206,179.43,206,179.43Z" style="fill: none;stroke: #727272;stroke-miterlimit: 10;stroke-width: 5px"/>
    <path d="M205.67,260.89v63.64h71.83c23.25,0,43.73-50.5,0-63.85C268.27,260.68,205.67,260.89,205.67,260.89Z" style="fill: none;stroke: #727272;stroke-miterlimit: 10;stroke-width: 5px"/>
  </g>
</svg>
