<svg xmlns="http://www.w3.org/2000/svg" viewBox="0 0 500 500">
  <title>brackets</title>
  <g id="brackets">
    <rect x="72.97" y="75.53" width="350.01" height="350.01" rx="59.16" ry="59.16" transform="translate(498.5 2.56) rotate(90)" style="fill: none;stroke: #727272;stroke-miterlimit: 10;stroke-width: 5px"/>
    <path d="M129.25,75.78h234A59.62,59.62,0,0,1,422.9,135.4V336a59.62,59.62,0,0,1-59.62,59.62H133.06A59.62,59.62,0,0,1,73.44,336V131.6A55.81,55.81,0,0,1,129.25,75.78Z" style="fill: none;stroke: #727272;stroke-miterlimit: 10;stroke-width: 5px"/>
    <rect x="112.14" y="117.03" width="267.05" height="236.73" rx="38.28" ry="38.28" style="fill: none;stroke: #727272;stroke-miterlimit: 10;stroke-width: 5px"/>
    <polygon points="140.14 146.06 232.6 146.06 232.6 186.99 182.86 186.99 182.86 279.45 232.63 279.45 232.63 322.13 139.81 322.17 140.14 146.06" style="fill: none;stroke: #727272;stroke-miterlimit: 10;stroke-width: 5px"/>
    <polygon points="347.3 146.06 254.85 146.06 254.85 186.99 304.58 186.99 304.58 279.45 254.81 279.45 254.81 322.13 347.63 322.17 347.3 146.06" style="fill: none;stroke: #727272;stroke-miterlimit: 10;stroke-width: 5px"/>
  </g>
</svg>
