<svg xmlns="http://www.w3.org/2000/svg" viewBox="0 0 1685.6 100">
  <title>Artboard 42</title>
  <g id="scroll_svg" data-name="scroll svg">
    <g id="p">
      <path d="M21.49,30V70h7V55.8S45.84,57.47,45.84,42c0-10.37-9.27-11.61-10.81-12Z" style="fill: none;stroke: #727272;stroke-miterlimit: 2"/>
      <path d="M28.22,35.91V49.66h5.23c.37-.37,5.79-.43,5.79-7.57,0-5.8-5.5-6.05-5.79-6.18Z" style="fill: none;stroke: #727272;stroke-miterlimit: 2"/>
    </g>
    <path id="s" d="M66.19,41.81c0-.57,0-4.73,0-5.86S51.5,31.42,49.25,41.8c-2.1,9.7,12.61,11.34,11.86,15.61-.91,5.23-10.47.46-11.83,0,0,1,0,5.34,0,6.27A15.84,15.84,0,0,0,57,65.46c7.6,0,10.33-5.07,10.33-8.91,0-10.85-13.3-8.37-11.5-14.71C56.82,38.4,65.67,41.24,66.19,41.81Z" style="fill: none;stroke: #727272;stroke-miterlimit: 2"/>
    <rect id="i" x="143.14" y="39.79" width="6.49" height="29.84" style="fill: none;stroke: #727272;stroke-miterlimit: 2"/>
    <circle id="ii" cx="146.31" cy="32.12" r="3.97" style="fill: none;stroke: #727272;stroke-miterlimit: 2"/>
    <path id="a" d="M117.87,29.31v1.14L107.28,68.08v1.52h6.13l2.92-11.14h11.53l2.91,11.15h7.33l-12-40.28Z" style="fill: none;stroke: #727272;stroke-miterlimit: 2"/>
    <polygon id="aa" points="121.81 35.02 126.29 51.93 117.84 51.93 121.81 35.02" style="fill: none;stroke: #727272;stroke-miterlimit: 2"/>
    <rect x="196.74" y="29.38" width="6.72" height="40.18" style="fill: none;stroke: #727272;stroke-miterlimit: 2"/>
    <path d="M232.83,29.56s0,37,0,37.88C231.68,68.86,225,70,223.3,70c-8.63,0-13.9-5.81-13.9-15.18,0-12,9.7-14.91,11.36-15.18a45.75,45.75,0,0,1,5.1-.26v-9.8Z" style="fill: none;stroke: #727272;stroke-miterlimit: 2"/>
    <path d="M226,45.39v18.2h-4.72c-3.24-1.14-5.07-5.51-5.07-8.75s.94-7.25,5.07-9.44Z" style="fill: none;stroke: #727272;stroke-miterlimit: 2"/>
    <polygon id="w" points="298.08 39.88 304.59 69.48 311.79 69.48 316.32 47.26 320.26 69.48 327.08 69.48 334.19 41.4 334.19 39.89 328.05 39.89 324.06 62.52 320.03 39.89 313.06 39.89 308.72 62.45 305 39.88 298.08 39.88" style="fill: none;stroke: #727272;stroke-miterlimit: 2"/>
    <path id="d" d="M268.4,29.17v40.4h12.89c14.41-2.67,15.48-16.94,15.41-21s-1.08-16.73-15.39-19.47Z" style="fill: none;stroke: #727272;stroke-miterlimit: 2"/>
    <path id="dd" d="M275.37,35.53V63.72h5.91c8.63-2.77,8.55-12.92,8.55-15.34s.08-9.76-8.55-12.88Z" style="fill: none;stroke: #727272;stroke-miterlimit: 2"/>
    <path id="r" d="M408.54,40.45v6c-1.33-.3-6.32,0-7.09.62,0,.88,0,23.41,0,23.41h-6.62s0-26.15,0-27.46C396.31,41.54,403.31,39.77,408.54,40.45Z" style="fill: none;stroke: #727272;stroke-miterlimit: 2"/>
    <path id="p-2" data-name="p" d="M365,70.48c0-.17,0-40.36,0-40.36l12.76,0s11.68,1.26,11.68,12.48c0,14.86-16.27,13.7-17.68,13.62,0,2.28,0,14.22,0,14.22Z" style="fill: none;stroke: #727272;stroke-miterlimit: 2"/>
    <path id="pp" d="M371.67,36.26l0,14.07h4.57s6.5-.28,6.5-7.72a6.16,6.16,0,0,0-5-6.35Z" style="fill: none;stroke: #727272;stroke-miterlimit: 2"/>
    <path id="a-2" data-name="a" d="M453,30.14v1.14L442.42,68.92v1.52h6.13l2.92-11.15H463l2.91,11.15h7.33l-12-40.3Z" style="fill: none;stroke: #727272;stroke-miterlimit: 2"/>
    <polygon id="aa-2" data-name="aa" points="457.02 36.43 461.49 53.29 453.04 53.29 457.02 36.43" style="fill: none;stroke: #727272;stroke-miterlimit: 2"/>
    <path id="e" d="M480.86,56.87c-.11,4,3.68,12.1,14.11,6.93v5.73c-.67.67-6.08,1.68-7.07,1.68S474,71.76,474,55.3c0-3.51,1.88-14.92,12.35-14.92,3.41,0,13.11,2.22,10.09,16.49Z" style="fill: none;stroke: #727272;stroke-miterlimit: 2"/>
    <path id="ee" d="M481,51.92H491.1c0-5.14-3.14-6.43-4.78-6.43S481,46.56,481,51.92Z" style="fill: none;stroke: #727272;stroke-miterlimit: 2"/>
    <path id="d-2" data-name="d" d="M580.4,29.88s0,37,0,37.88c-1.16,1.43-7.87,2.53-9.54,2.53-8.63,0-13.9-5.81-13.9-15.18,0-12,9.7-14.91,11.36-15.18a45.75,45.75,0,0,1,5.1-.26v-9.8Z" style="fill: none;stroke: #727272;stroke-miterlimit: 2"/>
    <path id="dd-2" data-name="dd" d="M573.58,45.71v18.2h-4.72c-3.24-1.14-5.07-5.51-5.07-8.75s.94-7.25,5.07-9.44Z" style="fill: none;stroke: #727272;stroke-miterlimit: 2"/>
    <polygon id="x" points="526.06 29.54 536.28 49.74 525.97 69.9 532.89 69.9 540.41 54.22 547.87 69.91 555.46 69.91 544.98 49.72 555.03 29.54 547.59 29.54 540.49 45.14 533.62 29.53 526.06 29.54" style="fill: none;stroke: #727272;stroke-miterlimit: 2"/>
    <path id="r-2" data-name="r" d="M658.31,39.88v6c-1.33-.3-6.32,0-7.09.62,0,.88,0,23.41,0,23.41H644.6s0-26.15,0-27.46C646.08,41,653.08,39.2,658.31,39.88Z" style="fill: none;stroke: #727272;stroke-miterlimit: 2"/>
    <polygon points="616.53 29.54 616.56 69.86 637.82 69.86 639.08 63.81 623.38 63.81 623.39 29.53 616.53 29.54" style="fill: none;stroke: #727272;stroke-miterlimit: 2"/>
    <polygon points="719.25 28.95 720.16 34.86 709.6 34.85 709.6 69.23 703.01 69.23 703.01 34.87 692.42 34.87 693.37 28.95 719.25 28.95" style="fill: none;stroke: #727272;stroke-miterlimit: 2"/>
    <polygon points="730.37 28.94 730.37 52.04 739.87 39.13 747.07 39.13 736.36 52.65 748.45 69.31 740.07 69.31 730.37 55.24 730.37 69.29 723.78 69.29 723.78 28.95 730.37 28.94" style="fill: none;stroke: #727272;stroke-miterlimit: 2"/>
    <path id="outter" d="M804.59,45.38c.52,1.08,4.81,7.28,6.62,8.66,6.75-1.38,14.45-.84,14.18,3.33s-8.47,3-14.52-2.42c-3.08.34-9.86,2-11.52,3-1,2.44-9.14,15.53-13.85,10.74-3.69-3.76,6.66-8.67,10.69-10.47,1.68-2.26,6.22-13.4,6.22-14.76-3.37-5.95-3.14-13.53.17-13.88C809,28.86,806.24,41.43,804.59,45.38Z" style="fill: none;stroke: #727272;stroke-miterlimit: 2"/>
    <path d="M795.51,59.36c-.23,1.37-7.5,11.79-9.67,8.51S795.51,59.36,795.51,59.36Z" style="fill: none;stroke: #727272;stroke-miterlimit: 2"/>
    <path d="M804.26,46.52a72.31,72.31,0,0,1-4.43,10.23A70.26,70.26,0,0,1,810,54.21,40.66,40.66,0,0,1,804.26,46.52Z" style="fill: none;stroke: #727272;stroke-miterlimit: 2"/>
    <path d="M802.79,42.14c.4-.75,3.8-11.41.44-11.73C799,30,801.9,40.63,802.79,42.14Z" style="fill: none;stroke: #727272;stroke-miterlimit: 2"/>
    <path d="M812,54.68c1.23,1.43,9.57,6.69,10.86,2.35C824,53.24,815.51,54.18,812,54.68Z" style="fill: none;stroke: #727272;stroke-miterlimit: 2"/>
    <circle cx="885.76" cy="50.58" r="4.59" style="fill: none;stroke: #727272;stroke-miterlimit: 2"/>
    <circle cx="905.51" cy="30.94" r="4.59" style="fill: none;stroke: #727272;stroke-miterlimit: 2"/>
    <circle cx="905.51" cy="70.44" r="4.59" style="fill: none;stroke: #727272;stroke-miterlimit: 2"/>
    <line x1="886.4" y1="50.13" x2="904.76" y2="31.66" style="fill: none;stroke: #727272;stroke-miterlimit: 2"/>
    <line x1="886.13" y1="51.19" x2="904.54" y2="69.6" style="fill: none;stroke: #727272;stroke-miterlimit: 2"/>
    <circle cx="885.85" cy="50.97" r="17.15" style="fill: none;stroke: #727272;stroke-miterlimit: 2"/>
    <polygon id="H" points="954.6 16.13 954.6 25.76 957.85 25.76 957.85 22.41 960.72 22.41 960.72 25.76 963.82 25.76 963.81 16.13 960.58 16.13 960.58 19.29 957.81 19.3 957.8 16.13 954.6 16.13" style="fill: none;stroke: #727272;stroke-miterlimit: 2"/>
    <polygon id="T" points="965.05 16.13 965.04 19.29 967.88 19.29 967.88 25.77 971.06 25.77 971.07 19.3 973.8 19.3 973.8 16.13 965.05 16.13" style="fill: none;stroke: #727272;stroke-miterlimit: 2"/>
    <polygon id="M" points="975.05 16.13 975.05 25.78 978.21 25.78 978.21 21.06 980.4 24.47 982.5 21 982.51 25.76 985.75 25.76 985.77 16.13 982.32 16.13 980.38 19.43 978.32 16.13 975.05 16.13" style="fill: none;stroke: #727272;stroke-miterlimit: 2"/>
    <polygon id="L" points="987.1 16.13 987.09 25.76 994.82 25.76 994.81 22.41 990.38 22.41 990.38 16.13 987.1 16.13" style="fill: none;stroke: #727272;stroke-miterlimit: 2"/>
    <g id="bg">
      <polygon id="outer" points="950 29.78 999.31 29.78 994.72 79.96 974.6 86.13 954.61 80.02 950 29.78" style="fill: none;stroke: #727272;stroke-miterlimit: 2"/>
    </g>
    <polygon id="_5" data-name="5" points="990.02 40.05 989.39 46.45 965.87 46.45 966.53 52.56 988.9 52.57 987.21 71.42 974.63 75 962.07 71.42 961.1 61.57 967.33 61.57 967.71 66.5 974.63 68.54 981.5 66.5 982.17 58.86 960.83 58.86 959.18 40.06 990.02 40.05" style="fill: none;stroke: #727272;stroke-miterlimit: 2"/>
    <g id="bg-2" data-name="bg">
      <polygon id="outer-2" data-name="outer" points="1033.84 29.83 1083.15 29.83 1078.56 80.01 1058.45 86.18 1038.45 80.07 1033.84 29.83" style="fill: none;stroke: #727272;stroke-miterlimit: 2"/>
    </g>
    <polygon id="_3" data-name="3" points="1042.99 40.1 1043.67 46.5 1066.88 46.51 1066.33 52.62 1051.04 52.63 1051.68 58.82 1065.79 58.82 1065.1 66.31 1058.22 68.16 1051.45 66.33 1051.09 61.65 1044.97 61.65 1045.73 71.03 1058.21 74.52 1070.86 71.02 1073.62 40.11 1042.99 40.1" style="fill: none;stroke: #727272;stroke-miterlimit: 2"/>
    <polygon id="C" points="1044.29 16.18 1044.29 25.82 1051.77 25.82 1051.76 22.46 1047.45 22.46 1047.45 19.43 1051.77 19.43 1051.76 16.18 1044.29 16.18" style="fill: none;stroke: #727272;stroke-miterlimit: 2"/>
    <polygon id="S-2" data-name="S" points="1053.39 16.18 1053.39 19.42 1056.76 22.46 1053.39 22.45 1053.39 25.82 1061.98 25.81 1061.98 22.46 1058.22 19.43 1061.98 19.43 1061.99 16.19 1053.39 16.18" style="fill: none;stroke: #727272;stroke-miterlimit: 2"/>
    <polygon id="S-3" data-name="S" points="1063.65 16.18 1063.65 19.42 1067.02 22.46 1063.65 22.45 1063.65 25.82 1072.24 25.81 1072.24 22.46 1068.48 19.43 1072.24 19.43 1072.25 16.19 1063.65 16.18" style="fill: none;stroke: #727272;stroke-miterlimit: 2"/>
    <g id="bg-3" data-name="bg">
      <polygon id="outer-3" data-name="outer" points="1200.94 30.15 1250.24 30.15 1245.65 80.33 1225.54 86.5 1205.54 80.39 1200.94 30.15" style="fill: none;stroke: #727272;stroke-miterlimit: 2"/>
    </g>
    <polygon id="J" points="1224.32 40.41 1224.32 74.99 1212.88 71.36 1212.13 61.99 1216.35 62.86 1216.36 66.64 1220.11 68.15 1218.95 40.44 1224.32 40.41" style="fill: none;stroke: #727272;stroke-miterlimit: 2"/>
    <polygon id="S-4" data-name="S" points="1226.66 40.43 1226.67 59.13 1234.46 58.81 1233.88 66.61 1226.68 68.12 1226.66 75 1238.32 71.37 1239.91 52.94 1232.01 52.92 1232 46.83 1240.65 46.83 1241.06 40.44 1226.66 40.43" style="fill: none;stroke: #727272;stroke-miterlimit: 2"/>
    <polygon points="1224.33 16.5 1224.33 26.14 1216.36 26.14 1216.36 21.86 1219.71 21.86 1219.71 22.78 1220.99 22.78 1220.99 16.51 1224.33 16.5" style="fill: none;stroke: #727272;stroke-miterlimit: 2"/>
    <polygon points="1226.65 16.5 1226.66 19.75 1229.31 22.78 1226.65 22.78 1226.66 26.14 1234.47 26.15 1234.46 22.78 1231.96 19.75 1234.51 19.75 1234.52 16.51 1226.65 16.5" style="fill: none;stroke: #727272;stroke-miterlimit: 2"/>
    <path id="outer-4" data-name="outer" d="M1121.2,42.33a.36.36,0,0,1,.56-.41c9.14,8.19,29.81-5.77,25.42-13.54-5.09-9-35.59,3.38-37.6,14.1-1.33,7.07,6.11,10,11.87,15.89.66.06,7.58-4.19,7.58-4.19s3.52-4.7,7-4.46c2.81.19,2.39,4.12,2.18,4.76a1.57,1.57,0,0,1,2.56.91c.06.7-2.83,8-2,10,.76.06,7.62-15.18,8-17.91.25-.93,4.54-1.1,4.73.11s-2.39,3.25.29,8.78c4.45-6.34,4.75-10.33,5.32-11.25s3.74-.93,4.56-.15a.43.43,0,0,1,.09.48,9.57,9.57,0,0,0,.88,9.67c14.89-6.57,22.61,8.23,13.58,11.62a.28.28,0,0,1-.26-.49c7.88-5.58-4-13-12.46-9.12a4.74,4.74,0,0,1,.33,4.33c-1.42,3.66-6.66,5.66-7.91,4.69-3.24-2.52,2.71-8.58,3.64-9.12a12.8,12.8,0,0,1-2.08-5.92,67.36,67.36,0,0,1-4.46,7.66,6.76,6.76,0,0,1,.33,5.87c-1.66,4-9.37,5.35-9.52,3-.09-1.43,5.15-7,5.74-7.57a22.17,22.17,0,0,1-2.38-6.63c-.64,1.78-6.47,16.51-9.91,16.39-2.15-.08-2.19-3.76-1.93-5.64-1.1,3.29-3.57,8.77-6.75,6.13-4-3.35-1.75-11.38-1.43-12.27a27.91,27.91,0,0,1-4.13,2.25c5.4,14.81-13,21.58-16.24,15.17C1102.76,67.79,1116,61,1118.6,60c-3-2.22-15.51-9.09-14.91-15.93,1.42-16.26,37.12-31.45,46.62-18.74,3.74,5,.54,12.78-5.44,17.18C1138.06,47.52,1124.21,49.7,1121.2,42.33Z" style="fill: none;stroke: #727272;stroke-miterlimit: 2"/>
    <path d="M1120.42,61.67c2.63,7.61-6.51,13.57-8.75,11.76C1108.87,71.18,1113,65.37,1120.42,61.67Z" style="fill: none;stroke: #727272;stroke-miterlimit: 2"/>
    <path d="M1136.06,53c.51,2-3.54,12.15-5,13.35a.27.27,0,0,1-.4-.05c-2.67-3.8,1.79-13.46,5-13.6A.4.4,0,0,1,1136.06,53Z" style="fill: none;stroke: #727272;stroke-miterlimit: 2"/>
    <path d="M1150.4,62.06a4.92,4.92,0,0,1-3.61,4.43,0,0,0,0,1,0-.06C1147.57,65.46,1150.05,62.45,1150.4,62.06Z" style="fill: none;stroke: #727272;stroke-miterlimit: 2"/>
    <path d="M1160.42,58.66c.95,1.61-.23,4.73-2.69,5.25a.12.12,0,0,1-.15-.1C1157.36,62.69,1158.84,60,1160.42,58.66Z" style="fill: none;stroke: #727272;stroke-miterlimit: 2"/>
    <path id="small" d="M1314.84,17.61c-1.31,4.64,1.34,9.91,5.9,12.58a12.11,12.11,0,0,0,11.72.46c-3.31,4.94-9.84,4.65-13.84,2.32C1313.87,30.21,1310.33,23.73,1314.84,17.61Z" style="fill: none;stroke: #727272;stroke-miterlimit: 2"/>
    <path id="middle" d="M1304.49,20.29c-2.3,8.16,1.35,16,8.84,20.6,6.22,3.82,14.28,4.43,21.45-2.32-5.56,10.78-17,10.95-24.56,6.71C1301.8,40.57,1296.93,29.77,1304.49,20.29Z" style="fill: none;stroke: #727272;stroke-miterlimit: 2"/>
    <path id="large" d="M1292.08,24.64c-3.38,15,4.35,23.95,12.87,28.93,6.3,3.69,19,6.61,28.36-2.62-8.09,15.77-25.37,13-33,8.53C1290.91,54,1279.84,38.21,1292.08,24.64Z" style="fill: none;stroke: #727272;stroke-miterlimit: 2"/>
    <path id="j-2" data-name="j" d="M1281.94,75.2s-1.54,8.72-2.49,9.4c-.45.33-1.8.15-1.8.15L1277,87.4s2.82.55,4.07-.12a3.62,3.62,0,0,0,1.83-2.15c.15-.49,2.25-9.93,2.25-9.93Z" style="fill: none;stroke: #727272;stroke-miterlimit: 2"/>
    <polygon id="_." data-name="." points="1282.73 71.67 1282.15 74.17 1285.39 74.18 1285.98 71.67 1282.73 71.67" style="fill: none;stroke: #727272;stroke-miterlimit: 2"/>
    <path id="q" d="M1298.33,80.05l1.56,0c0,.24-.63,2.63-.69,2.9h-9c-5.34-.77-4-7-3.24-8.8s1.73-5.67,7.74-5.67c4.32,0,5.32,3.43,5.29,5.67S1298.72,79.05,1298.33,80.05Z" style="fill: none;stroke: #727272;stroke-miterlimit: 2"/>
    <path id="qq" d="M1295.16,80.07h-3.73c-2-.55-1.69-2.09-1.62-2.83a18.42,18.42,0,0,1,1.47-4.58,3.18,3.18,0,0,1,2.89-1,2.28,2.28,0,0,1,2.52,2.5C1296.66,74.88,1295.36,79.49,1295.16,80.07Z" style="fill: none;stroke: #727272;stroke-miterlimit: 2"/>
    <path id="u" d="M1302.47,71.67h3s-1.77,8-1,8.4h3.05c.37-.37,1.87-8.39,1.87-8.39h3L1310,83h-6.38a2.6,2.6,0,0,1-2.52-2.56C1300.93,77.73,1302.47,71.67,1302.47,71.67Z" style="fill: none;stroke: #727272;stroke-miterlimit: 2"/>
    <path id="e-2" data-name="e" d="M1322.12,80.06c-.08.66-.36,2.2-.52,2.9h-6.66c-.91-.25-2.7-.72-2.85-2.93a12.52,12.52,0,0,1,2.19-6.9,6.23,6.23,0,0,1,4.79-1.77c3.43,0,4.12,2.12,4.19,2.8a12.56,12.56,0,0,1-.53,4.24h-7.16c-.3.34-.35,1.48.5,1.67Z" style="fill: none;stroke: #727272;stroke-miterlimit: 2"/>
    <path id="ee-2" data-name="ee" d="M1316,76h4.08a1.67,1.67,0,0,0-1.54-1.78A2.29,2.29,0,0,0,1316,76Z" style="fill: none;stroke: #727272;stroke-miterlimit: 2"/>
    <path id="r-3" data-name="r" d="M1323.33,83l2.47-11.32h7.12l.17,0c.66.12,1.91.19,1.91,2.5h-6.74l-1.85,8.8Z" style="fill: none;stroke: #727272;stroke-miterlimit: 2"/>
    <path id="y" d="M1331.92,75.21h3.37l.52,1.8,4.8-7h3.7s-6.94,8.41-8.39,12.94h-3.36a5.61,5.61,0,0,0,.62-2.26A41.18,41.18,0,0,0,1331.92,75.21Z" style="fill: none;stroke: #727272;stroke-miterlimit: 2"/>
    <path d="M1634,38.77h19a0,0,0,0,1,0,0v48a0,0,0,0,1,0,0h-24.13a0,0,0,0,1,0,0V43.85A5.08,5.08,0,0,1,1634,38.77Z" style="fill: none;stroke: #727272;stroke-miterlimit: 2"/>
    <path d="M1611.91,62.76h17a0,0,0,0,1,0,0v24a0,0,0,0,1,0,0h-17.16a4.79,4.79,0,0,1-4.79-4.79V67.74a5,5,0,0,1,5-5Z" style="fill: none;stroke: #727272;stroke-miterlimit: 2"/>
    <path d="M1658,16.79h13.81a5.16,5.16,0,0,1,5.16,5.16V81.64a5.16,5.16,0,0,1-5.16,5.16h-19a0,0,0,0,1,0,0V21.95A5.16,5.16,0,0,1,1658,16.79Z" style="fill: none;stroke: #727272;stroke-miterlimit: 2"/>
    <path d="M1652.93,86.79h18.93a5.15,5.15,0,0,0,5.15-5.16V62.89c-2.86-2.84-21.1-21-24.13-24Z" style="fill: none;stroke: #727272;stroke-miterlimit: 2"/>
    <rect x="1358.19" y="16.19" width="70" height="70" rx="11.83" ry="11.83" style="fill: none;stroke: #727272;stroke-miterlimit: 2"/>
    <path id="B" d="M1376.92,32.11V72.5h21.42c17.58-2.37,13.61-20.23,4.59-21.78,6.65-1.79,10.2-17.11-4.62-18.63Z" style="fill: none;stroke: #727272;stroke-miterlimit: 2"/>
    <path d="M1384,37.68V49h13.1c4.06,0,7.76-9.27.11-11.3Z" style="fill: none;stroke: #727272;stroke-miterlimit: 2"/>
    <path d="M1385,56V68.7h14.37c4.65,0,8.75-10.1,0-12.77Z" style="fill: none;stroke: #727272;stroke-miterlimit: 2"/>
    <rect x="1524.97" y="15.63" width="70" height="70" rx="11.83" ry="11.83" transform="translate(1610.61 -1509.34) rotate(90)" style="fill: none;stroke: #727272;stroke-miterlimit: 2"/>
    <path id="leaf" d="M1540.62,75a.23.23,0,0,0,.38,0c1.69-2.69,3.5-6.63,8.73-7.22,38.88-4.37,31-27.91,29.71-30,.4-2.29,4.35-5.79,5.34-7.72a.64.64,0,0,0-.05-.68c-1-1.3-1.32-2.27-2-2-.39.19-.85,1.76-1.68,3.37-1.07,2.08-2.7,4.89-4,4.35C1546.14,22,1527.93,58.29,1540.62,75Z" style="fill: none;stroke: #727272;stroke-miterlimit: 2"/>
    <rect x="1442.04" y="15" width="70" height="70" rx="11.83" ry="11.83" transform="translate(1527.04 -1427.04) rotate(90)" style="fill: none;stroke: #727272;stroke-miterlimit: 2"/>
    <rect x="1449.87" y="26.33" width="53.41" height="47.35" rx="7.66" ry="7.66" style="fill: none;stroke: #727272;stroke-miterlimit: 2"/>
    <polygon points="1455.47 32.39 1473.96 32.39 1473.96 40.58 1464.02 40.58 1464.02 59.07 1473.97 59.07 1473.97 67.6 1455.41 67.61 1455.47 32.39" style="fill: none;stroke: #727272;stroke-miterlimit: 2"/>
    <polygon points="1496.91 32.39 1478.41 32.39 1478.41 40.58 1488.36 40.58 1488.36 59.07 1478.41 59.07 1478.41 67.6 1496.97 67.61 1496.91 32.39" style="fill: none;stroke: #727272;stroke-miterlimit: 2"/>
  </g>
</svg>
