<svg xmlns="http://www.w3.org/2000/svg" viewBox="0 0 500 500">
  <title>photoshop</title>
  <g id="psd">
    <g id="p">
      <path d="M157.4,162.83V327.16h28.53V268.79s71.34,6.85,71.34-56.61c0-42.52-38-47.64-44.33-49.32Z" style="fill: none;stroke: #727272;stroke-miterlimit: 10;stroke-width: 5px"/>
      <path d="M185,187.21V243.6l21.44,0c1.5-1.5,23.75-1.78,23.75-31.05,0-23.78-22.55-24.83-23.75-25.33Z" style="fill: none;stroke: #727272;stroke-miterlimit: 10;stroke-width: 5px"/>
    </g>
    <path id="s" d="M340.75,230c0-2.32,0-19.39,0-24,0-4.27-60.26-18.54-69.47,24-8.62,39.79,51.7,46.52,48.66,64-3.73,21.45-42.94,1.88-48.51-.11,0,4.25.12,21.92.12,25.7,3.18.93,11.66,7.42,31.55,7.42,31.17,0,42.35-20.81,42.39-36.53.11-44.5-54.56-34.34-47.18-60.34C302.3,216.07,338.59,227.73,340.75,230Z" style="fill: none;stroke: #727272;stroke-miterlimit: 10;stroke-width: 5px"/>
  </g>
</svg>
