<svg xmlns="http://www.w3.org/2000/svg" viewBox="0 0 500 500">
  <title>apple copy</title>
  <g id="Google">
    <path id="red" d="M157.09,213.32c13.34-41.69,51.63-71.79,96.77-71.79a100,100,0,0,1,66.14,25l44.34-46.41A164.33,164.33,0,0,0,250.48,74.2C185,74.2,128.37,112.79,100.86,169Z" style="fill: none;stroke: #727272;stroke-miterlimit: 10;stroke-width: 5px"/>
    <path id="yellow" d="M100.87,323.36a176.64,176.64,0,0,1,0-154.31l56.23,44.27a107.35,107.35,0,0,0,.07,65.31Z" style="fill: none;stroke: #727272;stroke-miterlimit: 10;stroke-width: 5px"/>
    <path id="green" d="M363,373.5A164.26,164.26,0,0,1,250.48,418.2c-65.43,0-122.1-38.59-149.61-94.84l56.3-44.73c13.41,41.57,51.64,71.56,96.7,71.56a99.65,99.65,0,0,0,57.9-18.5Z" style="fill: none;stroke: #727272;stroke-miterlimit: 10;stroke-width: 5px"/>
    <path id="blue" d="M311.76,331.68a104.32,104.32,0,0,0,37.78-50.11H248.82V212.73H414.66l.21,1.1a178.27,178.27,0,0,1-.59,67.75A173,173,0,0,1,363,373.5Z" style="fill: none;stroke: #727272;stroke-miterlimit: 10;stroke-width: 5px"/>
  </g>
</svg>
