<?xml version="1.0" encoding="utf-8"?>
<!-- Generator: Adobe Illustrator 21.1.0, SVG Export Plug-In . SVG Version: 6.00 Build 0)  -->
<svg version="1.1" id="Layer_1" xmlns="http://www.w3.org/2000/svg" xmlns:xlink="http://www.w3.org/1999/xlink" x="0px" y="0px"
	 viewBox="0 0 500 500" style="enable-background:new 0 0 500 500;" xml:space="preserve">
<style type="text/css">
	.st0{fill:none;stroke:#727272;stroke-width:5;stroke-miterlimit:10;}
</style>
<title>invision</title>
<g id="invision">
	<path class="st0" d="M99.7,59.1h303c18.4,0,33.4,14.9,33.4,33.4v301.6c0,18.4-14.9,33.4-33.4,33.4h-303
		c-18.4,0-33.4-14.9-33.4-33.4V92.5C66.3,74,81.2,59.1,99.7,59.1z"/>
	<circle class="st0" cx="191.2" cy="152.3" r="22.9"/>
	<path class="st0" d="M141.6,195h63.5c-2,5.6-37.9,111.4-20.1,122.1c9.8,5.9,42.8-2.7,55.3-90.5H215c1.5-4.7,7.9-26.6,9.3-31.7
		l56.9,0.1c-0.8,3.2-4.9,24-5.8,28.3c13.8-19.3,26.8-30.3,47.9-30.3c35.3,0,37,26.7,37.5,42.2c0.7,29.8-25.5,71.3-14.6,80.8
		c10.8,9.5,21.1-21.4,25.7-21.4c4.5,0,14.1,4.3,13.2,7.6c-8.7,31.4-29.6,40.3-42.6,40.3c-30.5,0-36.1-20.5-34.8-36.7
		c0.9-12.5,26.1-68.4,9.4-79.1c-48.3-30.9-63.4,109.1-64.4,115.7h-38.1c0,0,4.6-20.1,5.9-25.6c-4.1,5.6-15.8,25.6-45.1,25.6
		c-10.4,0-36.4-3.4-33.9-31.8c1.3-13.7,18.9-80.8,19.9-84h-27.1C134.9,221.4,138.2,204.8,141.6,195z"/>
</g>
</svg>
