<svg xmlns="http://www.w3.org/2000/svg" viewBox="0 0 500 500">
  <title>js</title>
  <g id="js">
    <g id="bg">
      <polygon id="outer" points="127.24 141.3 372.34 141.3 349.53 390.77 249.53 421.42 150.12 391.06 127.24 141.3" style="fill: none;stroke: #727272;stroke-miterlimit: 10;stroke-width: 5px"/>
    </g>
    <polygon id="J" points="243.5 192.34 243.5 364.23 186.61 346.15 182.87 299.61 203.86 303.9 203.89 322.71 222.57 330.2 216.8 192.44 243.5 192.34" style="fill: none;stroke: #727272;stroke-miterlimit: 10;stroke-width: 5px"/>
    <polygon id="S" points="255.14 192.42 255.17 285.36 293.9 283.76 290.99 322.55 255.22 330.05 255.14 364.29 313.07 346.2 321.01 254.6 281.73 254.5 281.68 224.22 324.65 224.22 326.71 192.44 255.14 192.42" style="fill: none;stroke: #727272;stroke-miterlimit: 10;stroke-width: 5px"/>
    <polygon points="243.53 73.46 243.54 121.37 203.91 121.37 203.91 100.09 220.58 100.12 220.59 104.67 226.92 104.67 226.92 73.48 243.53 73.46" style="fill: none;stroke: #727272;stroke-miterlimit: 10;stroke-width: 5px"/>
    <polygon points="255.06 73.43 255.13 89.6 268.28 104.69 255.09 104.69 255.11 121.38 293.95 121.41 293.93 104.67 281.46 89.59 294.16 89.59 294.17 73.48 255.06 73.43" style="fill: none;stroke: #727272;stroke-miterlimit: 10;stroke-width: 5px"/>
  </g>
</svg>
