<svg xmlns="http://www.w3.org/2000/svg" viewBox="0 0 500 500">
  <title>sass</title>
  <g id="sass">
    <path id="outer" d="M131.62,208.88a2.14,2.14,0,0,1,3.36-2.45c55.14,49.41,179.9-34.8,153.41-81.73C257.65,70.24,73.6,145.08,61.46,209.8c-8,42.65,36.85,60.12,71.62,95.93,4,.36,45.74-25.26,45.74-25.26s21.22-28.36,42-26.93c17,1.16,14.4,24.88,13.17,28.74,8.42-5.84,15.06,1.27,15.45,5.49s-17.08,48.45-12.34,60.57c4.6.38,46-91.59,48.14-108.09,1.49-5.61,27.4-6.62,28.55.66s-14.41,19.59,1.75,53c26.88-38.29,28.69-62.33,32.11-67.87,3-4.85,22.55-5.61,27.49-.9a2.61,2.61,0,0,1,.56,2.89c-11.32,27.32-2.65,47,5.29,58.35,89.84-39.64,136.48,49.69,82,70.14a1.7,1.7,0,0,1-1.57-3c47.53-33.67-24.44-78.42-75.22-55.07,5,6.48,5.36,17.49,2,26.12-8.57,22.08-40.22,34.13-47.72,28.28-19.53-15.24,16.37-51.76,22-55.07C354.46,286.45,349.7,269,349.84,262c-4.28,9.87-22.88,41.47-26.92,46.26,7.56,15,5.39,27.27,2,35.44-10,24.07-56.58,32.32-57.48,18.21-.55-8.61,31.1-42,34.65-45.69-4.86-6.84-13.91-32-14.36-40-3.85,10.76-39.06,99.66-59.81,98.92-13-.46-13.23-22.71-11.67-34.07-6.64,19.88-21.57,52.94-40.75,37-24.32-20.21-10.58-68.7-8.66-74.07-8.5,6.09-20.81,11.63-24.93,13.57,32.58,89.36-78.44,130.26-98,91.58-23.59-46.65,56.28-87.38,72.06-93.82C97.57,302,22.35,260.49,26,219.22c8.57-98.1,224-189.83,281.35-113.09,22.55,30.17,3.26,77.11-32.82,103.71C233.35,240.17,149.76,253.37,131.62,208.88Z" style="fill: none;stroke: #727272;stroke-miterlimit: 10;stroke-width: 5px"/>
    <path d="M126.91,325.62c15.85,45.9-39.3,81.89-52.83,71C57.21,383,82.28,347.9,126.91,325.62Z" style="fill: none;stroke: #727272;stroke-miterlimit: 10;stroke-width: 5px"/>
    <path d="M221.32,273.13c3.11,12.36-21.36,73.34-30.18,80.54a1.64,1.64,0,0,1-2.39-.32c-16.09-22.93,10.83-81.24,30.13-82.06A2.44,2.44,0,0,1,221.32,273.13Z" style="fill: none;stroke: #727272;stroke-miterlimit: 10;stroke-width: 5px"/>
    <path d="M307.87,328c1.07,7.53-8.5,24.67-21.78,26.73a.23.23,0,0,1-.21-.38C290.78,348.47,305.75,330.3,307.87,328Z" style="fill: none;stroke: #727272;stroke-miterlimit: 10;stroke-width: 5px"/>
    <path d="M368.29,307.46c5.72,9.7-1.4,28.53-16.23,31.69a.75.75,0,0,1-.88-.59C349.82,331.73,358.79,315.41,368.29,307.46Z" style="fill: none;stroke: #727272;stroke-miterlimit: 10;stroke-width: 5px"/>
  </g>
</svg>
