<svg xmlns="http://www.w3.org/2000/svg" viewBox="0 0 500 500">
  <title>analytics copy 2</title>
  <g id="sketch">
    <polygon points="364.68 78.44 364.85 192.86 250.06 67.84 364.68 78.44" style="fill: none;stroke: #727272;stroke-miterlimit: 10;stroke-width: 5px"/>
    <polygon points="138.45 192.54 248 67.84 138.45 78.24 138.45 192.54"  style="fill: none;stroke: #727272;stroke-miterlimit: 10;stroke-width: 5px"/>
    <polygon points="365.65 79.48 364.7 192.81 447.92 193.02 365.65 79.48"  style="fill: none;stroke: #727272;stroke-miterlimit: 10;stroke-width: 5px"/>
    <polygon points="139.79 78.57 52.22 191.84 140.01 192.76 139.79 78.57"  style="fill: none;stroke: #727272;stroke-miterlimit: 10;stroke-width: 5px"/>
    <polygon points="364.7 192.81 447.92 193.02 251.68 418.23 364.7 192.81"  style="fill: none;stroke: #727272;stroke-miterlimit: 10;stroke-width: 5px"/>
    <polygon points="52.32 192.72 139.99 193.03 247.38 418.36 52.32 192.72"  style="fill: none;stroke: #727272;stroke-miterlimit: 10;stroke-width: 5px"/>
    <polygon points="140.49 192.31 249.03 419.45 250 192.73 140.49 192.31"  style="fill: none;stroke: #727272;stroke-miterlimit: 10;stroke-width: 5px"/>
    <polygon points="249.76 191.06 249.98 419.5 364.97 191.01 249.76 191.06"  style="fill: none;stroke: #727272;stroke-miterlimit: 10;stroke-width: 5px"/>
    <polygon points="141.47 192.05 248.64 67.84 363.17 191.8 141.47 192.05"  style="fill: none;stroke: #727272;stroke-miterlimit: 10;stroke-width: 5px"/>
  </g>
</svg>
