<svg xmlns="http://www.w3.org/2000/svg" viewBox="0 0 500 500">
  <title>be</title>
  <g id="Layer_8" data-name="Layer 8">
    <g>
      <path id="b" d="M201.23,227.56A54.8,54.8,0,0,0,250.56,173V168a74.41,74.41,0,0,0-74.43-74.41H18.73V227.5h-.08V385h160.1a84.34,84.34,0,0,0,84.35-84.33V292A64.53,64.53,0,0,0,201.23,227.56ZM83.43,143.72h72.75a32.65,32.65,0,0,1,32.65,32.65v1.82a34.22,34.22,0,0,1-34.23,34.23H83.43ZM200.26,297.13a39.14,39.14,0,0,1-39.14,39.14H83.43v-81h79.51a37.33,37.33,0,0,1,37.33,37.34Z" style="fill: none;stroke: #1969fb;stroke-miterlimit: 10;stroke-width: 10px"/>
      <rect id="line" x="323.08" y="106.89" width="117.4" height="33.08" style="fill: none;stroke: #1969fb;stroke-miterlimit: 10;stroke-width: 10px"/>
      <path id="e" d="M486.65,287.87a117.93,117.93,0,0,0,.84-14.19c0-61.93-47.7-112.13-106.54-112.13s-106.53,50.2-106.53,112.13S322.12,385.81,381,385.81c45.4,0,84.18-29.89,99.51-72H430.38A51.23,51.23,0,0,1,333.28,291c0-1.06,0-2.1.1-3.14H486.65ZM332.72,250.41a47.91,47.91,0,0,1,95.66,0Z" style="fill: none;stroke: #1969fb;stroke-miterlimit: 10;stroke-width: 10px"/>
    </g>
  </g>
</svg>
