<svg xmlns="http://www.w3.org/2000/svg" viewBox="0 0 500 500">
  <title>cc</title>
  <g id="cc">
    <g>
      <path d="M306.85,378.13c-36.93,0-72.35-15.22-99.72-42.86C181.92,309.8,163.37,291,152,279.48c-5-5.09-8.23-8.39-10.2-10.43l-2.18-2.27c-6.45-6.84-3-13.73-.33-16.42s9.64-6.07,16.48.48l1.68,1.63c1.24,1.22,2.67,2.64,3.45,3.42a15.12,15.12,0,0,1,1.94,2.35c8,8.21,25,25.4,60.34,61.11,23.09,23.32,52.8,36.16,83.65,36.16A114.81,114.81,0,1,0,300.58,126c-25.66,1.38-48.33,9.63-67.63,26.67l-23.3-11.29c25.18-24.77,59-36.31,89.71-38A138,138,0,0,1,444.05,248.8C439.83,321.32,379.56,378.13,306.85,378.13Z" style="fill: red"/>
      <path d="M288.83,257c-2.85,2.5-8.87,4.26-13.83-1.13l-1.14-1.27-4-4.45c-10.45-11.68-34.91-39-45.43-49.21-15.48-15-37-23.19-60.68-23.19a90.95,90.95,0,1,0,0,181.9l24.25,0h5.49l24.39,19.18c-6,0-20.8,0-29.86,0l-24.27,0a110.17,110.17,0,1,1,0-220.33c28.66,0,55,10.15,74,28.59,11,10.66,34.92,37.37,46.41,50.2l.16.18c1.85,2.15,3.35,3.55,4.21,4.56l1,1.19C292.63,246.91,293.41,253,288.83,257Z" style="fill: red"/>
      <path d="M476.58,240A167.84,167.84,0,0,1,308.73,407.88c-1.77,0-3.55,0-5.31-.09l-142.75.08h-.73c-1.35,0-2.68,0-4-.07a140.44,140.44,0,1,1,27.09-279A167.85,167.85,0,0,1,476.58,240Z" style="fill: none;stroke: red;stroke-miterlimit: 10;stroke-width: 10px"/>
    </g>
  </g>
</svg>
