<svg xmlns="http://www.w3.org/2000/svg" viewBox="0 0 500 500">
  <title>GitHub</title>
  <g id="github">
    <path d="M137.1,195.2c-2.3-11.28-6-36.54,3-50.76,17.65-2.7,45.58,17,51.13,21,26.75-9.19,66.53-9.4,93.75,0,13.08-10.35,36.14-22.2,51.44-20.31,7.69,8.53,6.4,38.88,2.23,49.61,34.77,30.77,38.27,139.64-65.24,139.64,8.84,4.31,13,14.87,13,21.84,0,7.35.07,45.54.09,65.94,0,5.19,4.84,10.47,9.68,8.61,78.27-30.1,128.08-95,128.08-181.26,0-64.49-55.61-180.61-184.81-180.61C117.38,68.87,52.3,176.3,52.3,250.32c0,118.79,90.86,170.17,128.75,179.44a8.66,8.66,0,0,0,10.69-8.42c0-11.18,0-27.49,0-30.51-2,1.15-36.59,7.16-54.35-11.18C126,367.86,129,360,122.21,350.88S107,338.56,100.65,329.71c8.64-7.1,27.26,0,32,7.82s13.89,21.66,24.38,25.72,21.19,4.73,34.56-.52c0-13.26,3.85-23.5,11.42-28.25C122.14,339.83,93,244.93,137.1,195.2Z" style="fill: none;stroke: #000;stroke-miterlimit: 10;stroke-width: 10px"/>
  </g>
</svg>
