<svg xmlns="http://www.w3.org/2000/svg">
	
  <defs>

		<g id="cc">
		    <path d="M306.85,378.13c-36.93,0-72.35-15.22-99.72-42.86C181.92,309.8,163.37,291,152,279.48c-5-5.09-8.23-8.39-10.2-10.43l-2.18-2.27c-6.45-6.84-3-13.73-.33-16.42s9.64-6.07,16.48.48l1.68,1.63c1.24,1.22,2.67,2.64,3.45,3.42a15.12,15.12,0,0,1,1.94,2.35c8,8.21,25,25.4,60.34,61.11,23.09,23.32,52.8,36.16,83.65,36.16A114.81,114.81,0,1,0,300.58,126c-25.66,1.38-48.33,9.63-67.63,26.67l-23.3-11.29c25.18-24.77,59-36.31,89.71-38A138,138,0,0,1,444.05,248.8C439.83,321.32,379.56,378.13,306.85,378.13Z" />
		    <path d="M288.83,257c-2.85,2.5-8.87,4.26-13.83-1.13l-1.14-1.27-4-4.45c-10.45-11.68-34.91-39-45.43-49.21-15.48-15-37-23.19-60.68-23.19a90.95,90.95,0,1,0,0,181.9l24.25,0h5.49l24.39,19.18c-6,0-20.8,0-29.86,0l-24.27,0a110.17,110.17,0,1,1,0-220.33c28.66,0,55,10.15,74,28.59,11,10.66,34.92,37.37,46.41,50.2l.16.18c1.85,2.15,3.35,3.55,4.21,4.56l1,1.19C292.63,246.91,293.41,253,288.83,257Z" />
		    <path d="M476.58,240A167.84,167.84,0,0,1,308.73,407.88c-1.77,0-3.55,0-5.31-.09l-142.75.08h-.73c-1.35,0-2.68,0-4-.07a140.44,140.44,0,1,1,27.09-279A167.85,167.85,0,0,1,476.58,240Z" />
		</g>		
	
		<g id="codepen">
		    <path d="M83,173.75,247.57,66.46a25.34,25.34,0,0,1,27.85.11l161.8,107.3A25.34,25.34,0,0,1,448.55,195l-.14,102.47A25.34,25.34,0,0,1,437,318.61L275.64,425.18a25.34,25.34,0,0,1-27.73.13L83.22,318.7a25.34,25.34,0,0,1-11.57-21.25L71.54,195A25.34,25.34,0,0,1,83,173.75Z" />
		    <path d="M72.07,307.89,248.87,191a25.34,25.34,0,0,1,28.25.2L446.87,306.87" />
		    <line x1="262.04" y1="59.4" x2="262.04" y2="186.46" />
		    <path d="M72.07,178.51,248,300a25.34,25.34,0,0,0,28.5.2L448.92,184.67"/>
			<line x1="262.04" y1="305.84" x2="262.04" y2="432.91"/>
		</g>
		
		<g id="be">
		    <path class="be" d="M200.42 237.54a53.4 53.4 0 0 0 48.07-53.13v-4.92A72.51 72.51 0 0 0 176 107H22.58v130.48h-.08v153.46h156a82.19 82.19 0 0 0 82.19-82.18v-8.39a62.88 62.88 0 0 0-60.27-62.83zm-114.79-81.7h70.89a31.82 31.82 0 0 1 31.82 31.82v1.77A33.35 33.35 0 0 1 155 222.78H85.63zm113.85 149.49a38.14 38.14 0 0 1-38.14 38.14H85.63v-78.94h77.48a36.38 36.38 0 0 1 36.37 36.39zM319.16 119.96h114.41v32.24H319.16zM478.55 296.31a114.92 114.92 0 0 0 .82-13.82c0-60.35-46.48-109.27-103.82-109.27s-103.8 48.92-103.8 109.26 46.48 109.27 103.81 109.27c44.24 0 82-29.13 97-70.17h-48.8a49.93 49.93 0 0 1-94.62-22.23c0-1 0-2 .1-3.06h149.31zm-150-36.5a46.69 46.69 0 0 1 93.22 0z"/>
		</g>		

		<g id="github">
		    <path d="M137.1,195.2c-2.3-11.28-6-36.54,3-50.76,17.65-2.7,45.58,17,51.13,21,26.75-9.19,66.53-9.4,93.75,0,13.08-10.35,36.14-22.2,51.44-20.31,7.69,8.53,6.4,38.88,2.23,49.61,34.77,30.77,38.27,139.64-65.24,139.64,8.84,4.31,13,14.87,13,21.84,0,7.35.07,45.54.09,65.94,0,5.19,4.84,10.47,9.68,8.61,78.27-30.1,128.08-95,128.08-181.26,0-64.49-55.61-180.61-184.81-180.61C117.38,68.87,52.3,176.3,52.3,250.32c0,118.79,90.86,170.17,128.75,179.44a8.66,8.66,0,0,0,10.69-8.42c0-11.18,0-27.49,0-30.51-2,1.15-36.59,7.16-54.35-11.18C126,367.86,129,360,122.21,350.88S107,338.56,100.65,329.71c8.64-7.1,27.26,0,32,7.82s13.89,21.66,24.38,25.72,21.19,4.73,34.56-.52c0-13.26,3.85-23.5,11.42-28.25C122.14,339.83,93,244.93,137.1,195.2Z" />
		</g>
				  		  
		<g id="xd">
		      <path d="M398.67,91v70l-.39,0q-5.58-.55-11.31-.55a114.63,114.63,0,0,0-26.85,226.07,10.08,10.08,0,0,0,2.35.27h49a10,10,0,0,0,2.34-.27,114,114,0,0,0,31.28-12.64,9.73,9.73,0,0,0,4.79-8.38V91ZM389,344.78H373a9.55,9.55,0,0,1-4.78-1.24,81.26,81.26,0,0,1-5-137.72,9.47,9.47,0,0,1,5.32-1.58H389a9.69,9.69,0,0,1,9.69,9.69V335.09A9.69,9.69,0,0,1,389,344.78Z"/>
		      <path d="M265.49,365.71V383a3.26,3.26,0,0,1-3.26,3.26H221.07a3.26,3.26,0,0,1-2.83-1.63l-57.72-100a3.26,3.26,0,0,0-5.65,0l-57.72,100a3.26,3.26,0,0,1-2.83,1.63H51.15A3.26,3.26,0,0,1,47.89,383V369.18a3.26,3.26,0,0,1,.44-1.63l79.09-136.93a3.26,3.26,0,0,0,0-3.27l-72-124.74a3.26,3.26,0,0,1-.44-1.63V91.32a3.26,3.26,0,0,1,3.26-3.26h45.6a3.26,3.26,0,0,1,2.83,1.63l48.24,83.55a3.26,3.26,0,0,0,5.65,0l48.24-83.55a3.26,3.26,0,0,1,2.83-1.63H257.1a3.26,3.26,0,0,1,3.26,3.26v9.79a3.26,3.26,0,0,1-.44,1.63L188,227.35a3.26,3.26,0,0,0,0,3.26L265,364.08A3.26,3.26,0,0,1,265.49,365.71Z" />
		</g>
		
		<g id="dribbble">
		      <circle cx="245.58" cy="244.58" r="175.84" />
		      <path d="M180.65,82C211,111.75,307.38,242.12,322.54,401.59" />
		      <path d="M69.08,223.93C90.3,227,334.67,219.08,368,117.21" />
		      <path d="M130,373.94C150,333.53,224.89,214.49,418.35,259.1" />
		</g>

		<g id="download">
		  <line x1="261.11" y1="38.03" x2="261.11" y2="442.8" />
		  <line x1="379.29" y1="325.25" x2="261.29" y2="443.25" />
		  <line x1="344.54" y1="483.35" x2="177.67" y2="483.35" />
		  <line x1="260.22" y1="443.34" x2="142.22" y2="325.34" />
		</g>
							
		<g id="pipe">
		   <path d="M40.89,211.61c-13,69-3,127,17,151,23,27.59,60.84,30,80,30,114,0,165.89-118.06,222.35-145,37.65-18,61.47-21,89.65-20,0,0,16.28,8,15-10-1-14-17-15-21-9-9-1-68.6-8-126,17-65.5,28.58-123.71,94.31-151.77,86.68-17.23-4.68,5.77-37.68-11.23-104.68-4.2-16.56-121-12-112,0,7.74,10.31,84.93,9.39,107.84,3.14-2.51-42.38-107.06-14.42-100.32-41.34,5.84-23.37,86.73,1.35,81.34-22.92-5.58-25.13-69.55-2.42-64.71-23.37,4-17.53,33.59-15.42,40.45-15.73" />
		</g>

    <!-- etc -->

  </defs>
  
</svg>