<svg id="Layer_1" data-name="Layer 1" xmlns="http://www.w3.org/2000/svg" viewBox="0 0 1000 500">
  <title>Artboard 1</title>
  <polyline points="525.5 67 525.5 101.5 184.5 101.5 184.5 158.5" style="fill: #fff;stroke: #000;stroke-miterlimit: 10"/>
  <polyline points="852.5 150 852.5 101.5 484.5 101.5" style="fill: #fff;stroke: #000;stroke-miterlimit: 10"/>
  <text transform="translate(502.06 56.35)" style="font-size: 22.182809829711914px;font-family: MyriadPro-Regular, Myriad Pro">s<tspan x="8.78" y="0" style="letter-spacing: 0.01699302874134117em">k</tspan><tspan x="19.56" y="0">ills</tspan></text>
  <text transform="translate(148.06 181.35)" style="font-size: 22.182809829711914px;font-family: MyriadPro-Regular, Myriad Pro"><tspan style="letter-spacing: 0.005987181110938858em">S</tspan><tspan x="11.07" y="0">o</tspan><tspan x="23.25" y="0" style="letter-spacing: 0.011005847630402313em">f</tspan><tspan x="29.97" y="0" style="letter-spacing: 0.008980771666408286em">t</tspan><tspan x="37.51" y="0" style="letter-spacing: -0.003984116842205637em">w</tspan><tspan x="53.75" y="0" style="letter-spacing: -0.000022011695260804627em">a</tspan><tspan x="64.44" y="0" style="letter-spacing: -0.0099933096484053em">r</tspan><tspan x="71.47" y="0">e</tspan></text>
  <text transform="translate(122.06 223.35)" style="font-size: 22.182809829711914px;font-family: MyriadPro-Regular, Myriad Pro">pho<tspan x="37.11" y="0" style="letter-spacing: -0.005987181110938858em">t</tspan><tspan x="44.32" y="0">oshop</tspan><tspan x="0" y="26.62">pho</tspan><tspan x="37.11" y="26.62" style="letter-spacing: -0.005987181110938858em">t</tspan><tspan x="44.32" y="26.62">oshop</tspan><tspan x="0" y="53.24">pho</tspan><tspan x="37.11" y="53.24" style="letter-spacing: -0.005987181110938858em">t</tspan><tspan x="44.32" y="53.24">oshop</tspan><tspan x="0" y="79.86">pho</tspan><tspan x="37.11" y="79.86" style="letter-spacing: -0.005987181110938858em">t</tspan><tspan x="44.32" y="79.86">oshop</tspan><tspan x="0" y="106.48">pho</tspan><tspan x="37.11" y="106.48" style="letter-spacing: -0.005987181110938858em">t</tspan><tspan x="44.32" y="106.48">oshop</tspan><tspan x="0" y="133.1">pho</tspan><tspan x="37.11" y="133.1" style="letter-spacing: -0.005987181110938858em">t</tspan><tspan x="44.32" y="133.1">oshop</tspan><tspan x="0" y="159.72">pho</tspan><tspan x="37.11" y="159.72" style="letter-spacing: -0.005987181110938858em">t</tspan><tspan x="44.32" y="159.72">oshop</tspan></text>
  <text transform="translate(762.06 170.35)" style="font-size: 22.182809829711914px;font-family: MyriadPro-Regular, Myriad Pro"><tspan style="letter-spacing: -0.002993590555469429em">e</tspan><tspan x="11.05" y="0" style="letter-spacing: 0.000022011695260804627em">xpe</tspan><tspan x="45.05" y="0" style="letter-spacing: 0.023970736139016235em">r</tspan><tspan x="52.84" y="0">tise</tspan></text>
  <rect x="242" y="213" width="183" height="12" rx="6" ry="6"/>
  <rect x="242" y="239" width="183" height="12" rx="6" ry="6"/>
  <rect x="242" y="265" width="183" height="12" rx="6" ry="6"/>
  <rect x="242" y="292" width="183" height="12" rx="6" ry="6"/>
  <rect x="242" y="319" width="183" height="12" rx="6" ry="6"/>
  <rect x="241" y="345" width="183" height="12" rx="6" ry="6"/>
  <rect x="241" y="372" width="183" height="12" rx="6" ry="6"/>
  <text transform="translate(618.06 207.35)" style="font-size: 22.182809829711914px;font-family: MyriadPro-Regular, Myriad Pro">pho<tspan x="37.11" y="0" style="letter-spacing: -0.005987181110938858em">t</tspan><tspan x="44.32" y="0">oshop</tspan><tspan x="0" y="26.62">pho</tspan><tspan x="37.11" y="26.62" style="letter-spacing: -0.005987181110938858em">t</tspan><tspan x="44.32" y="26.62">oshop</tspan><tspan x="0" y="53.24">pho</tspan><tspan x="37.11" y="53.24" style="letter-spacing: -0.005987181110938858em">t</tspan><tspan x="44.32" y="53.24">oshop</tspan></text>
  <text transform="translate(814.06 289.35)" style="font-size: 22.182809829711914px;font-family: MyriadPro-Regular, Myriad Pro">pho<tspan x="37.11" y="0" style="letter-spacing: -0.005987181110938858em">t</tspan><tspan x="44.32" y="0">oshop</tspan><tspan x="0" y="26.62">pho</tspan><tspan x="37.11" y="26.62" style="letter-spacing: -0.005987181110938858em">t</tspan><tspan x="44.32" y="26.62">oshop</tspan><tspan x="0" y="53.24">pho</tspan><tspan x="37.11" y="53.24" style="letter-spacing: -0.005987181110938858em">t</tspan><tspan x="44.32" y="53.24">oshop</tspan><tspan x="0" y="79.86">pho</tspan><tspan x="37.11" y="79.86" style="letter-spacing: -0.005987181110938858em">t</tspan><tspan x="44.32" y="79.86">oshop</tspan></text>
  <rect x="738" y="197" width="183" height="12" rx="6" ry="6"/>
  <rect x="738" y="223" width="183" height="12" rx="6" ry="6"/>
  <rect x="738" y="249" width="183" height="12" rx="6" ry="6"/>
  <rect x="612" y="278" width="183" height="12" rx="6" ry="6"/>
  <rect x="611" y="306" width="183" height="12" rx="6" ry="6"/>
  <rect x="612" y="335" width="183" height="12" rx="6" ry="6"/>
  <rect x="610" y="360" width="183" height="12" rx="6" ry="6"/>
  <line x1="804.5" y1="280.5" x2="804.5" y2="374.5" style="fill: #fff;stroke: #000;stroke-miterlimit: 10"/>
</svg>
