<svg xmlns="http://www.w3.org/2000/svg" viewBox="0 0 1120.73 76.09">
  <title>dwardfellows (homemade)</title>
  <g id="edward">
    <path d="M487.4,259.82c0,4,28-15,22-22s-25,16-25,22,6,9.58,9,10c7,1,32-11,35-15s12-21,20-19c4,1,7,7,2,19-3.44,8.26-13,15.76-19,15-7.68-1-3.33-13.94-3.33-13.94" transform="translate(-236.65 -199.93)" style="fill: none;stroke: #000;stroke-linecap: round;stroke-linejoin: round;stroke-width: 5px"/>
    <path d="M570.4,208.82C566,216,551.9,251.74,551.48,255.5c-1,9,5.92,13.32,10.92,13.32,4,0,13-6,14-9s1.64-12.21,8-18" transform="translate(-236.65 -199.93)" style="fill: none;stroke: #000;stroke-linecap: round;stroke-linejoin: round;stroke-width: 5px"/>
    <path d="M576.38,261.27c-1.53,5,1.73,9.83,5,10.55,6.84,1.51,23-15,28-25-5,11-4,25,7,25,15,0,26-19,26-31" transform="translate(-236.65 -199.93)" style="fill: none;stroke: #000;stroke-linecap: round;stroke-linejoin: round;stroke-width: 5px"/>
    <path d="M667.4,259.82c-2,5-11.3,13.14-17,11-8-3,1-19,5-23s9.69-13.23,14-10c4,3-3,20,0,25s5,9,13,9,24-28,25-33c0,5,0,16,14,11-5,4-13.28,15.43-4,21,5.68,3.41,14.89-5.48,21-14,4.65-6.48,5-11,8-14,8.06-8.06,19-9,19,2,0,14-12,26.68-21,26-10.82-.82-5.12-14.33-5.12-14.33" transform="translate(-236.65 -199.93)" style="fill: none;stroke: #000;stroke-linecap: round;stroke-linejoin: round;stroke-width: 5px"/>
    <path d="M782.4,206.82c-7,14-16,42-17,50-.74,6,0,11,6,12,3,.49,14-2,20-12" transform="translate(-236.65 -199.93)" style="fill: none;stroke: #000;stroke-linecap: round;stroke-linejoin: round;stroke-width: 5px"/>
  </g>
  <g id="fellows">
    <path d="M808.4,215.82c10,2,34-8,38-13s-29,39-28,70" transform="translate(-236.65 -199.93)" style="fill: none;stroke: #000;stroke-linecap: round;stroke-linejoin: round;stroke-width: 5px"/>
    <path d="M791.4,241.82c0,7,45-8,46-2" transform="translate(-236.65 -199.93)" style="fill: none;stroke: #000;stroke-linecap: round;stroke-linejoin: round;stroke-width: 5px"/>
    <path d="M851.4,259.82c5,0,24.71-14.29,18-21-6-6-21.54,14.18-23,20-2,8,3,13,10,12s33-13,35-15" transform="translate(-236.65 -199.93)" style="fill: none;stroke: #000;stroke-linecap: round;stroke-linejoin: round;stroke-width: 5px"/>
    <path d="M893.17,262c2-1.08,31.24-38.14,25.24-48.14s-30,40-27,49,10,9,14,8,22-11,23-13" transform="translate(-236.65 -199.93)" style="fill: none;stroke: #000;stroke-linecap: round;stroke-linejoin: round;stroke-width: 5px"/>
    <path d="M932.4,260.82c2-1.15,30-38,24-47s-28,36-27,48,8,11,11,10,23-11,25-13" transform="translate(-236.65 -199.93)" style="fill: none;stroke: #000;stroke-linecap: round;stroke-linejoin: round;stroke-width: 5px"/>
    <path d="M974.4,248.82c16,13,30,4,36-5-6,10-12,27-2,29s27-22,28-24-12.08,20.42,7,24c16,3,28-25,25-31" transform="translate(-236.65 -199.93)" style="fill: none;stroke: #000;stroke-linecap: round;stroke-linejoin: round;stroke-width: 5px"/>
    <path d="M966.4,272.82c6.32,3.61,15-8,16-10s8-17,3-21c-3.9-3.12-13,8-15,11S959.4,268.82,966.4,272.82Z" transform="translate(-236.65 -199.93)" style="fill: none;stroke: #000;stroke-linecap: round;stroke-linejoin: round;stroke-width: 5px"/>
    <path d="M1069.4,254.82c2,4,9.24,12.3,16,15,5,2,23-1,38-13" transform="translate(-236.65 -199.93)" style="fill: none;stroke: #000;stroke-linecap: round;stroke-linejoin: round;stroke-width: 5px"/>
    <path d="M1070.4,272.82c3-5,18-29,28-30s4,19,0,25" transform="translate(-236.65 -199.93)" style="fill: none;stroke: #000;stroke-linecap: round;stroke-linejoin: round;stroke-width: 5px"/>
  </g>
  <g id="co.uk">
    <path d="M1167.67,253.37c-1.85,3.7,8.46-19.34,2.3-22.73s-20.16,22.43-20.48,27c-.54,7.66,1.85,12.33,7.4,13.25s27.34-3.66,37.51-12" transform="translate(-236.65 -199.93)" style="fill: none;stroke: #000;stroke-linecap: round;stroke-linejoin: round;stroke-width: 5px"/>
    <path d="M1200.95,247.82c3.59,2.74,21.22,10.62,36.67,2.77" transform="translate(-236.65 -199.93)" style="fill: none;stroke: #000;stroke-linecap: round;stroke-linejoin: round;stroke-width: 5px"/>
    <path d="M1195.09,272.79c12.15,6.14,26.15-28.26,18.8-32.67S1185.69,268,1195.09,272.79Z" transform="translate(-236.65 -199.93)" style="fill: none;stroke: #000;stroke-linecap: round;stroke-linejoin: round;stroke-width: 5px"/>
    <path d="M1261.81,242.28c-3.39,4.93-14.79,21.57-5.55,27.73s30-23.07,30.82-25.89-12.59,18.52-1.66,25c5.69,3.36,13.57-.39,16.47-3.81,0,0,37.65-50.34,28.86-55.06-13.68-7.36-29.59,51.67-27.95,59.92,3.55-5.36,23.3-43.77,33.49-31.59,9.95,11.89-15.36,22.13-22,16-.5,6.29.37,15,8.16,15s22.18-1.95,32.37-16.19" transform="translate(-236.65 -199.93)" style="fill: none;stroke: #000;stroke-linecap: round;stroke-linejoin: round;stroke-width: 5px"/>
  </g>
  <g id="www">
    <path d="M248.56,238.38c-2.74,3.66-16.15,22.92-5.1,31.14s32-24.46,30.41-24.92-11.19,20.72,5.81,26.68c11.52,4,28-18.88,25.51-32.39" transform="translate(-236.65 -199.93)" style="fill: none;stroke: #000;stroke-miterlimit: 10;stroke-width: 5px"/>
    <path d="M323.56,238.38c-2.74,3.66-16.15,22.92-5.1,31.14s32-24.46,30.41-24.92-11.19,20.72,5.81,26.68c11.52,4,28-18.88,25.51-32.39" transform="translate(-236.65 -199.93)" style="fill: none;stroke: #000;stroke-miterlimit: 10;stroke-width: 5px"/>
    <path d="M398.56,238.38c-2.74,3.66-16.15,22.92-5.1,31.14s32-24.46,30.41-24.92-11.19,20.72,5.81,26.68c11.52,4,28-18.88,25.51-32.39" transform="translate(-236.65 -199.93)" style="fill: none;stroke: #000;stroke-miterlimit: 10;stroke-width: 5px"/>
  </g>
  <g id="dots">
    <circle cx="227.69" cy="68.62" r="4.55"/>
    <circle cx="897.37" cy="69.76" r="4.55"/>
    <circle cx="997.97" cy="69.09" r="4.55"/>
  </g>
</svg>
