<svg xmlns="http://www.w3.org/2000/svg" viewBox="0 0 500 500">
  <title>apple</title>
  <g id="apple">
    <path id="leaf" d="M319.79,75.7a77.3,77.3,0,0,1-70.77,77c-.11-1.68-.17-3.38-.17-5.09a77.29,77.29,0,0,1,70.77-77C319.73,72.3,319.79,74,319.79,75.7Z" style="fill: none;stroke: #727272;stroke-miterlimit: 10;stroke-width: 5px"/>
    <path id="apple-2" data-name="apple" d="M253.21,170.26c18.47,0,37.55-14.61,62.64-14.61,21.41,0,55.17,9.36,67.64,35.18-43.29,18.65-58.64,105.51,9.7,137.54-20.19,54.07-50.48,93-74.07,93S281,407.84,253.26,407.84c-29.14,0-22.12,13.66-54.48,13.66-38.08,0-92-95.92-92-155.16,0-77.86,58.29-111,85.17-111S234.71,170.26,253.21,170.26Z" style="fill: none;stroke: #727272;stroke-miterlimit: 10;stroke-width: 5px"/>
  </g>
</svg>
