<svg xmlns="http://www.w3.org/2000/svg" viewBox="0 0 500 500">
  <title>xd</title>
  <g id="xd">
    <path id="d" d="M358.62,162.12s0,151.75,0,155.35c-4.75,5.85-32.29,10.38-39.11,10.38-35.41,0-57-23.84-57-62.25,0-49.38,39.77-61.17,46.59-62.25s20.93-1,20.93-1v-40.2Z" style="fill: none;stroke: #727272;stroke-miterlimit: 10;stroke-width: 5px"/>
    <path id="dd" d="M330.65,227v74.64H311.27C298,297,290.46,279.08,290.46,265.8s3.85-29.73,20.78-38.72Z" style="fill: none;stroke: #727272;stroke-miterlimit: 10;stroke-width: 5px"/>
    <polygon id="x" points="135.75 160.72 177.69 243.57 135.39 326.26 163.79 326.26 194.61 261.94 225.23 326.29 256.33 326.29 213.38 243.48 254.59 160.72 224.07 160.7 194.96 224.68 166.76 160.68 135.75 160.72" style="fill: none;stroke: #727272;stroke-miterlimit: 10;stroke-width: 5px"/>
  </g>
</svg>
